<svg width="25" height="25" viewBox="0 0 25 25" fill="none" xmlns="http://www.w3.org/2000/svg">
<path d="M20.5275 0H4.47246C2.00635 0 0 2.00635 0 4.47246V20.5276C0 22.9937 2.00635 25 4.47246 25H20.5276C22.9937 25 25 22.9937 25 20.5275V4.47246C25 2.00635 22.9937 0 20.5275 0ZM23.5352 20.5275C23.5352 22.1859 22.1859 23.5352 20.5275 23.5352H4.47246C2.81406 23.5352 1.46484 22.1859 1.46484 20.5275V4.47246C1.46484 2.81406 2.81406 1.46484 4.47246 1.46484H20.5276C22.1859 1.46484 23.5352 2.81406 23.5352 4.47246V20.5275Z" fill="black"/>
<path d="M21.1296 5.49154H9.97424C9.66755 4.58065 8.80598 3.92255 7.79299 3.92255C6.78 3.92255 5.91843 4.58065 5.61174 5.49154H3.87048C3.46599 5.49154 3.13806 5.81947 3.13806 6.22396C3.13806 6.62845 3.46599 6.95638 3.87048 6.95638H5.61179C5.91848 7.86727 6.78005 8.52538 7.79304 8.52538C8.80603 8.52538 9.6676 7.86727 9.97429 6.95638H21.1296C21.5341 6.95638 21.862 6.62845 21.862 6.22396C21.862 5.81947 21.5341 5.49154 21.1296 5.49154ZM7.79299 7.06054C7.33171 7.06054 6.95642 6.68524 6.95642 6.22396C6.95642 5.76268 7.33171 5.38739 7.79299 5.38739C8.25427 5.38739 8.62957 5.76268 8.62957 6.22396C8.62957 6.68524 8.25427 7.06054 7.79299 7.06054Z" fill="black"/>
<path d="M21.1296 11.7676H19.3883C19.0816 10.8567 18.2199 10.1986 17.207 10.1986C16.1941 10.1986 15.3325 10.8567 15.0258 11.7676H3.87048C3.46599 11.7676 3.13806 12.0955 3.13806 12.5C3.13806 12.9045 3.46599 13.2324 3.87048 13.2324H15.0258C15.3325 14.1433 16.1941 14.8014 17.2071 14.8014C18.22 14.8014 19.0816 14.1433 19.3883 13.2324H21.1296C21.5341 13.2324 21.862 12.9045 21.862 12.5C21.862 12.0955 21.5341 11.7676 21.1296 11.7676ZM17.2071 13.3366C16.7458 13.3366 16.3705 12.9613 16.3705 12.5C16.3705 12.0387 16.7458 11.6635 17.2071 11.6635C17.6683 11.6635 18.0436 12.0387 18.0436 12.5C18.0436 12.9613 17.6683 13.3366 17.2071 13.3366Z" fill="black"/>
<path d="M21.1296 18.0436H13.1123C12.8056 17.1327 11.944 16.4746 10.931 16.4746C9.91804 16.4746 9.05647 17.1327 8.74978 18.0436H3.87048C3.46599 18.0436 3.13806 18.3715 3.13806 18.776C3.13806 19.1805 3.46599 19.5084 3.87048 19.5084H8.74978C9.05647 20.4193 9.91804 21.0774 10.931 21.0774C11.944 21.0774 12.8056 20.4193 13.1123 19.5084H21.1296C21.5341 19.5084 21.862 19.1805 21.862 18.776C21.862 18.3715 21.5341 18.0436 21.1296 18.0436ZM10.931 19.6126C10.4698 19.6126 10.0945 19.2374 10.0945 18.7761C10.0945 18.3148 10.4698 17.9395 10.931 17.9395C11.3923 17.9395 11.7676 18.3147 11.7676 18.776C11.7676 19.2373 11.3923 19.6126 10.931 19.6126Z" fill="black"/>
</svg>
